<svg width="42" height="42" viewBox="0 0 42 42" fill="none" xmlns="http://www.w3.org/2000/svg">
<rect width="42" height="42" rx="21" fill="url(#paint0_linear_2_125)"/>
<path d="M15.0649 23.2075C15.4607 22.3835 15.4172 21.3096 14.9423 20.1839C14.1032 18.1939 12.6581 17.0572 11.4281 17.4193C10.2003 17.781 9.69924 19.4583 10.1812 21.5928C10.4417 22.7465 11.0402 23.6457 11.8666 24.1253C12.263 24.3553 12.6869 24.4729 13.1021 24.4729C13.3065 24.4729 13.5089 24.4444 13.7049 24.3866C14.3012 24.211 14.7842 23.7921 15.0649 23.2075Z" fill="white"/>
<path d="M15.8063 18.1816C16.2978 18.6285 16.8914 18.8683 17.4964 18.8683C17.5606 18.8683 17.6245 18.8657 17.6888 18.8603C18.3625 18.8036 18.9737 18.4637 19.41 17.9031C20.0198 17.1193 20.2294 15.979 19.9998 14.6918C19.5919 12.4052 18.3397 10.8898 16.9546 11.0063C15.5755 11.1224 14.6455 12.7852 14.6406 15.1437C14.638 16.4166 15.0521 17.4954 15.8063 18.1816Z" fill="white"/>
<path d="M30.5721 17.4193C29.3424 17.0572 27.8969 18.194 27.0577 20.1839C26.5829 21.3096 26.5394 22.3835 26.9352 23.2076C27.2159 23.7922 27.6989 24.2111 28.2952 24.3866C28.4912 24.4444 28.6934 24.4729 28.898 24.4729C29.313 24.4729 29.7371 24.3553 30.1335 24.1253C30.9599 23.6457 31.5585 22.7463 31.8189 21.5928C32.3009 19.4583 31.7998 17.7811 30.5721 17.4193Z" fill="white"/>
<path d="M24.3107 18.8603C24.375 18.8656 24.4389 18.8683 24.5028 18.8683C25.108 18.8683 25.7019 18.6285 26.1932 18.1815C26.9474 17.4953 27.3615 16.4166 27.3589 15.1436C27.3537 12.7851 26.424 11.1224 25.0449 11.0062C23.661 10.8902 22.4076 12.4051 21.9997 14.6918C21.7701 15.979 21.9795 17.1192 22.5895 17.9031C23.0258 18.4637 23.637 18.8036 24.3107 18.8603Z" fill="white"/>
<path d="M26.2219 25.0282C24.5873 23.8365 23.9203 22.0129 23.9137 21.9946L23.9108 21.987C22.9929 19.757 21.3235 19.6669 21.0027 19.6733C20.6774 19.668 19.0074 19.757 18.0884 21.9894C18.0806 22.0089 17.2964 23.9622 15.7807 25.0263C14.5497 25.8906 13.4694 27.5271 14.1286 29.5287C14.1479 29.5947 14.3603 30.284 14.9811 30.8704C16.0507 31.8808 17.4595 31.773 18.453 31.5048L18.4596 31.5029C18.4693 31.4998 19.434 31.1998 20.2872 30.9856C20.7537 30.8685 21.2466 30.8688 21.7129 30.9856C22.566 31.1996 23.5309 31.4998 23.5406 31.5029L23.5471 31.5048C24.0292 31.6349 24.4596 31.6899 24.8428 31.6899C25.8912 31.6899 26.5869 31.2786 27.0191 30.8704C27.6399 30.284 27.8523 29.5943 27.8717 29.5287C28.6842 27.061 26.8146 25.4601 26.2219 25.0282Z" fill="white"/>
<defs>
<linearGradient id="paint0_linear_2_125" x1="42" y1="21" x2="1.68086e-07" y2="21" gradientUnits="userSpaceOnUse">
<stop stop-color="#FA695A"/>
<stop offset="1" stop-color="#F83375"/>
</linearGradient>
</defs>
</svg>
